<svg xmlns="http://www.w3.org/2000/svg" viewBox="0 0 64 64">
  <rect width="64" height="64" rx="14" fill="#111827"/>
  <path d="M32 7a25 25 0 1 0 0 50 25 25 0 0 0 0-50Zm0 7v18L19.3 19.3A18 18 0 0 1 32 14Zm-18 18c0-4.7 1.8-9 4.8-12.2L32 32H14Zm5.3 12.7A18 18 0 0 1 14 32h18L19.3 44.7ZM32 50a18 18 0 0 1-12.2-4.8L32 32v18Zm12.7-5.3A18 18 0 0 1 32 50V32l12.7 12.7ZM50 32c0 4.7-1.8 9-4.8 12.2L32 32h18Zm-5.3-12.7A18 18 0 0 1 50 32H32l12.7-12.7ZM32 32V14c4.7 0 9 1.8 12.2 4.8L32 32Z" fill="#fffaf4"/>
  <circle cx="32" cy="32" r="7" fill="#ee5d8a"/>
</svg>
